HIERARCHY
ROOT joint_Root
{
	OFFSET 0.0 0.0 0.0
	CHANNELS 6 Xposition Yposition Zposition Zrotation Xrotation Yrotation 
	JOINT Hips
	{
		OFFSET 4.5925 91.4895 -427.239
		CHANNELS 6 Xposition Yposition Zposition Zrotation Xrotation Yrotation 
		JOINT Spine
		{
			OFFSET 15.7357 0.0 0.0
			CHANNELS 6 Xposition Yposition Zposition Zrotation Xrotation Yrotation 
			JOINT Chest
			{
				OFFSET 8.98455 -0.406207 0.0
				CHANNELS 6 Xposition Yposition Zposition Zrotation Xrotation Yrotation 
				JOINT Neck
				{
					OFFSET 16.3773 0.0 0.0
					CHANNELS 6 Xposition Yposition Zposition Zrotation Xrotation Yrotation 
					JOINT Head
					{
						OFFSET 6.45672 0.0 0.0
						CHANNELS 6 Xposition Yposition Zposition Zrotation Xrotation Yrotation 
						End Site
						{
							OFFSET 0.0 0.0 0.0
						}
					}
				}
				JOINT Shoulder_L
				{
					OFFSET 12.9942 -0.242716 4.98039
					CHANNELS 6 Xposition Yposition Zposition Zrotation Xrotation Yrotation 
					JOINT UpperArm_L
					{
						OFFSET 5.34809 0.0 0.0
						CHANNELS 6 Xposition Yposition Zposition Zrotation Xrotation Yrotation 
						JOINT LowerArm_L
						{
							OFFSET 24.3286 1.87007e-05 0.0
							CHANNELS 6 Xposition Yposition Zposition Zrotation Xrotation Yrotation 
							JOINT Hand_L
							{
								OFFSET 22.2916 0.0 0.0
								CHANNELS 6 Xposition Yposition Zposition Zrotation Xrotation Yrotation 
								End Site
								{
									OFFSET 0.0 0.0 0.0
								}
							}
						}
					}
				}
				JOINT Shoulder_R
				{
					OFFSET 12.9945 -0.242716 -4.98039
					CHANNELS 6 Xposition Yposition Zposition Zrotation Xrotation Yrotation 
					JOINT UpperArm_R
					{
						OFFSET -5.34813 0.0 0.0
						CHANNELS 6 Xposition Yposition Zposition Zrotation Xrotation Yrotation 
						JOINT LowerArm_R
						{
							OFFSET -24.3289 0.000322201 0.0
							CHANNELS 6 Xposition Yposition Zposition Zrotation Xrotation Yrotation 
							JOINT Hand_R
							{
								OFFSET -22.2915 -0.000108084 0.0
								CHANNELS 6 Xposition Yposition Zposition Zrotation Xrotation Yrotation 
								End Site
								{
									OFFSET 0.0 0.0 0.0
								}
							}
						}
					}
				}
			}
		}
		JOINT UpperLeg_L
		{
			OFFSET -2.19248 -6.46944 0.0
			CHANNELS 6 Xposition Yposition Zposition Zrotation Xrotation Yrotation 
			JOINT LowerLeg_L
			{
				OFFSET 39.0811 0.0 -1.23785e-05
				CHANNELS 6 Xposition Yposition Zposition Zrotation Xrotation Yrotation 
				JOINT Foot_L
				{
					OFFSET 40.9854 0.0 -1.26872e-05
					CHANNELS 6 Xposition Yposition Zposition Zrotation Xrotation Yrotation 
					JOINT Toes_L
					{
						OFFSET 11.7543 0.0 0.0
						CHANNELS 6 Xposition Yposition Zposition Zrotation Xrotation Yrotation 
						End Site
						{
							OFFSET 0.0 0.0 0.0
						}
					}
				}
			}
		}
		JOINT UpperLeg_R
		{
			OFFSET -2.19251 6.46944 0.0
			CHANNELS 6 Xposition Yposition Zposition Zrotation Xrotation Yrotation 
			JOINT LowerLeg_R
			{
				OFFSET -39.0811 -0.00228153 -0.0401928
				CHANNELS 6 Xposition Yposition Zposition Zrotation Xrotation Yrotation 
				JOINT Foot_R
				{
					OFFSET -40.9854 0.0 0.0
					CHANNELS 6 Xposition Yposition Zposition Zrotation Xrotation Yrotation 
					JOINT Toes_R
					{
						OFFSET -11.7543 0.0 0.0
						CHANNELS 6 Xposition Yposition Zposition Zrotation Xrotation Yrotation 
						End Site
						{
							OFFSET 0.0 0.0 0.0
						}
					}
				}
			}
		}
	}
}
MOTION
Frames:	4
Frame Time:	0.0333333
0.000000 0.000000 0.000000 0.000000 0.000000 -0.000000 0.213017 90.595600 1.812420 89.632000 -5.571070 13.104700 15.735700 0.000005 -0.000001 82.584900 80.876500 -81.186000 8.984550 -0.406207 -0.000000 10.364500 -2.307470 3.005570 16.377300 -0.000001 -0.000001 5.314390 -5.979310 3.704210 6.456720 -0.000001 -0.000000 -8.848070 -6.534810 4.108360 12.994200 -0.242716 4.980390 -91.782500 6.766720 -75.204900 5.348090 -0.000007 -0.000001 -60.161500 44.156500 -20.364900 24.328600 0.000019 0.000005 9.363780 22.689900 -23.145800 22.291600 -0.000001 0.000005 7.324860 5.311970 -0.265881 12.994500 -0.242716 -4.980390 88.282800 12.355000 -82.024100 -5.348130 -0.000001 -0.000004 -58.543600 34.959900 -12.190100 -24.328900 0.000322 -0.000009 0.925422 3.106360 -16.616400 -22.291500 -0.000108 -0.000004 12.408600 5.384750 -2.448200 -2.192480 -6.469440 -0.000000 -174.305000 -13.080800 4.956940 39.081100 -0.000007 -0.000012 -0.136478 0.231335 30.539000 40.985400 -0.000006 -0.000013 0.379646 4.110230 -72.015000 11.754300 -0.000000 0.000003 -0.000071 -0.000763 -16.607000 -2.192510 6.469440 -0.000001 172.572000 16.262500 -174.751000 -39.081100 -0.002282 -0.040193 -0.200061 0.351036 30.085000 -40.985400 0.000008 0.000006 1.893110 12.370200 -71.610400 -11.754300 -0.000006 -0.000006 -0.003645 -0.047692 -18.512900
0.000000 0.000000 0.000000 0.000000 0.000000 -0.000000 0.153649 90.594500 1.813860 89.653600 -5.483980 13.052800 15.735700 0.000005 -0.000001 82.694500 80.929300 -81.271500 8.984550 -0.406207 -0.000000 10.263900 -2.260720 3.047500 16.377300 -0.000001 -0.000001 6.038930 -6.182360 3.935870 6.456720 -0.000001 -0.000000 -7.732720 -6.964890 4.842010 12.994200 -0.242716 4.980390 -91.854100 6.788800 -74.685500 5.348090 -0.000007 -0.000001 -60.629900 41.404300 -19.628400 24.328600 0.000019 0.000005 10.055200 23.882200 -23.652500 22.291600 -0.000001 0.000005 7.602070 5.305530 -0.084233 12.994500 -0.242716 -4.980390 88.236000 12.334200 -81.795800 -5.348130 -0.000001 -0.000004 -58.377500 34.525400 -12.170400 -24.328900 0.000322 -0.000009 0.963922 3.310650 -16.260000 -22.291500 -0.000108 -0.000004 12.472200 5.383580 -2.411330 -2.192480 -6.469440 -0.000000 -174.303000 -13.024900 4.894090 39.081100 -0.000007 -0.000012 -0.139324 0.236202 30.534500 40.985400 -0.000006 -0.000013 0.346992 4.160640 -71.998800 11.754300 -0.000000 0.000003 -0.000070 -0.000759 -16.606900 -2.192510 6.469440 -0.000001 172.619000 16.276900 -174.812000 -39.081100 -0.002282 -0.040193 -0.199210 0.349181 30.112400 -40.985400 0.000008 0.000006 1.921030 12.280700 -71.641400 -11.754300 -0.000006 -0.000006 -0.003726 -0.048557 -18.548100
0.000000 0.000000 0.000000 0.000000 0.000000 -0.000000 0.069667 90.603800 1.814590 89.685800 -5.340300 12.979000 15.735700 0.000005 -0.000001 82.774200 81.014700 -81.335200 8.984550 -0.406207 -0.000000 10.097100 -2.216640 3.072280 16.377300 -0.000001 -0.000001 6.879390 -6.415030 4.157270 6.456720 -0.000001 -0.000000 -6.483090 -7.386900 5.469850 12.994200 -0.242716 4.980390 -91.932900 6.897830 -74.304800 5.348090 -0.000007 -0.000001 -60.308800 38.199500 -19.170000 24.328600 0.000019 0.000005 10.111500 23.409200 -24.173800 22.291600 -0.000001 0.000005 7.656660 5.302350 0.006436 12.994500 -0.242716 -4.980390 88.186800 12.327900 -81.565900 -5.348130 -0.000001 -0.000004 -58.353600 34.103000 -11.946900 -24.328900 0.000322 -0.000009 0.985806 3.409840 -16.151600 -22.291500 -0.000108 -0.000004 12.432000 5.383000 -2.392850 -2.192480 -6.469440 -0.000000 -174.345000 -12.851900 4.813970 39.081100 -0.000007 -0.000012 -0.139761 0.237501 30.475600 40.985400 -0.000006 -0.000013 0.282693 4.146190 -71.942500 11.754300 -0.000000 0.000003 -0.000069 -0.000750 -16.606500 -2.192510 6.469440 -0.000001 172.655000 16.360200 -174.846000 -39.081100 -0.002282 -0.040193 -0.196352 0.344670 30.082200 -40.985400 0.000008 0.000006 1.951280 12.179400 -71.658600 -11.754300 -0.000006 -0.000006 -0.003538 -0.046546 -18.466300
0.000000 0.000000 0.000000 0.000000 0.000000 -0.000000 -0.037976 90.598400 1.827430 89.736100 -5.025640 13.007100 15.735700 0.000005 -0.000001 82.774300 81.066600 -81.337100 8.984550 -0.406207 -0.000000 9.993730 -2.205220 3.065650 16.377300 -0.000001 -0.000001 7.766670 -6.712960 4.438490 6.456720 -0.000001 -0.000000 -5.075200 -7.794850 5.927470 12.994200 -0.242716 4.980390 -91.970600 6.925040 -74.072800 5.348090 -0.000007 -0.000001 -58.870100 35.080100 -19.676300 24.328600 0.000019 0.000005 10.116400 22.905200 -24.627700 22.291600 -0.000001 0.000005 7.348460 5.299820 0.077452 12.994500 -0.242716 -4.980390 88.152200 12.242600 -81.349200 -5.348130 -0.000001 -0.000004 -58.493400 33.844500 -11.674200 -24.328900 0.000322 -0.000009 0.950101 3.276840 -16.196000 -22.291500 -0.000108 -0.000004 12.345200 5.384640 -2.444910 -2.192480 -6.469440 -0.000000 -174.376000 -12.593400 4.801140 39.081100 -0.000007 -0.000012 -0.143032 0.243056 30.475800 40.985400 -0.000006 -0.000013 0.225638 4.209160 -71.915700 11.754300 -0.000000 0.000003 -0.000070 -0.000760 -16.606900 -2.192510 6.469440 -0.000001 172.634000 16.512900 -174.769000 -39.081100 -0.002282 -0.040193 -0.195735 0.343107 30.118400 -40.985400 0.000008 0.000006 1.991500 12.031800 -71.739000 -11.754300 -0.000006 -0.000006 -0.003446 -0.045545 -18.425500
